<svg xmlns="http://www.w3.org/2000/svg" viewBox="9.00192 2 32 46">
  <path d="M 25.042969 2 C 24.816406 2.011719 24.601563 2.101563 24.433594 2.253906 L 21.5625 4.820313 L 17.800781 3.984375 C 17.300781 3.875 16.796875 4.160156 16.636719 4.648438 L 15.433594 8.304688 L 11.757813 9.460938 C 11.269531 9.617188 10.976563 10.113281 11.078125 10.617188 L 11.863281 14.386719 L 9.265625 17.222656 C 8.917969 17.601563 8.914063 18.183594 9.253906 18.566406 L 11.816406 21.4375 L 10.984375 25.199219 C 10.875 25.699219 11.160156 26.203125 11.644531 26.363281 L 15.300781 27.566406 L 16.066406 30 L 16 30 L 16 47 C 16 47.347656 16.179688 47.667969 16.472656 47.851563 C 16.769531 48.03125 17.136719 48.050781 17.449219 47.894531 L 25 44.117188 L 32.550781 47.894531 C 32.863281 48.050781 33.230469 48.03125 33.527344 47.851563 C 33.820313 47.667969 34 47.347656 34 47 L 34 29.421875 L 34.566406 27.699219 L 38.242188 26.539063 C 38.730469 26.382813 39.023438 25.886719 38.921875 25.382813 L 38.136719 21.613281 L 40.734375 18.777344 C 41.082031 18.398438 41.085938 17.816406 40.746094 17.433594 L 38.183594 14.5625 L 39.015625 10.800781 C 39.125 10.300781 38.839844 9.796875 38.355469 9.636719 L 34.699219 8.429688 L 33.539063 4.757813 C 33.382813 4.269531 32.886719 3.976563 32.382813 4.078125 L 28.613281 4.863281 L 25.777344 2.265625 C 25.601563 2.105469 25.375 2.011719 25.140625 2 C 25.109375 2 25.074219 2 25.042969 2 Z M 25.089844 4.347656 L 27.640625 6.683594 C 27.875 6.902344 28.203125 6.992188 28.519531 6.925781 L 31.90625 6.222656 L 32.941406 9.519531 C 33.039063 9.828125 33.277344 10.070313 33.582031 10.171875 L 36.867188 11.25 L 36.121094 14.628906 C 36.050781 14.941406 36.136719 15.273438 36.347656 15.511719 L 38.652344 18.089844 L 36.316406 20.640625 C 36.097656 20.875 36.007813 21.203125 36.074219 21.519531 L 36.777344 24.90625 L 33.480469 25.941406 C 33.171875 26.039063 32.929688 26.277344 32.828125 26.582031 L 32.03125 29 L 32 29 L 32 29.105469 L 31.75 29.867188 L 28.371094 29.121094 C 28.058594 29.050781 27.726563 29.136719 27.488281 29.347656 L 24.910156 31.652344 L 22.359375 29.316406 C 22.125 29.097656 21.796875 29.007813 21.480469 29.074219 L 18.09375 29.777344 L 17.058594 26.480469 C 16.960938 26.171875 16.722656 25.929688 16.417969 25.828125 L 13.132813 24.75 L 13.878906 21.371094 C 13.949219 21.058594 13.863281 20.726563 13.652344 20.488281 L 11.347656 17.910156 L 13.683594 15.359375 C 13.902344 15.125 13.992188 14.796875 13.925781 14.480469 L 13.222656 11.09375 L 16.519531 10.058594 C 16.828125 9.960938 17.070313 9.722656 17.171875 9.414063 L 18.25 6.132813 L 21.628906 6.882813 C 21.941406 6.949219 22.273438 6.863281 22.511719 6.648438 Z M 25 8 C 19.488281 8 15 12.488281 15 18 C 15 23.511719 19.488281 28 25 28 C 30.511719 28 35 23.511719 35 18 C 35 12.488281 30.511719 8 25 8 Z M 25 10 C 29.429688 10 33 13.570313 33 18 C 33 22.429688 29.429688 26 25 26 C 20.570313 26 17 22.429688 17 18 C 17 13.570313 20.570313 10 25 10 Z M 21.386719 31.136719 L 24.222656 33.734375 C 24.601563 34.082031 25.183594 34.085938 25.566406 33.746094 L 28.4375 31.183594 L 32 31.972656 L 32 45.382813 L 25.449219 42.105469 C 25.164063 41.964844 24.835938 41.964844 24.550781 42.105469 L 18 45.382813 L 18 31.839844 Z" fill="#fff"/>
</svg>