<svg xmlns="http://www.w3.org/2000/svg" viewBox="9.71966 0 492.6 512">
  <path d="M489.74,47.625C484.6,32.109,473.631,5.383,458.084,0.797C456.287,0.266,454.428,0,452.537,0   c-10.578,0-19.781,8.07-32.5,19.242c-28.531,25.047-76.297,66.977-182.406,66.977c-48.984,0-105.484-9.195-167.938-27.336   c-5.109-1.484-10.031-2.234-14.625-2.234c-11.328,0-21.219,4.555-28.578,13.18C15.162,83.109,9.521,106.359,9.725,138.922   c0.156,23.094,3.188,42.5,3.328,43.313l0.25,1.641l0.75,1.477c0.578,1.148,14.547,28.367,51.359,55.336   c9.563,7.016,19.828,13.375,30.703,19.063c-1.281,14-3.313,28.844-5.422,44.031c-3.953,28.719-8.047,58.438-7.406,86.188   c0.75,32.719,8.172,57.875,22.719,76.906c17.938,23.5,45.969,37.438,85.734,42.625c12.719,1.656,24.969,2.5,36.391,2.5   c51.297,0,89.781-16.656,114.406-49.516c13.25-17.703,22.328-40.078,26.984-66.547c3.625-20.672,4.578-43.922,2.828-69.094   c-1.172-16.813-3.375-32.141-5.656-44.625c5.719-1.141,11.484-2.359,17.281-3.656v105.344l31.984,21.328l31.984-21.328V252.391   c12.172-9.031,22.422-20.148,30.688-33.328c14.797-23.57,22.734-52.711,23.578-86.625C502.912,104.133,498.49,74.016,489.74,47.625   z M42.725,83.672c3.313-3.883,7.234-5.695,12.344-5.695c2.594,0,5.5,0.469,8.672,1.383   c64.391,18.703,122.891,28.188,173.891,28.188c114.141,0,167.703-47.016,196.469-72.273c6.281-5.516,14.797-12.984,18.125-13.875   c3.422,2.297,12.359,14.922,19.844,41.352c4.609,16.227,11.734,48.93,7.734,85.656c-0.188,1.758-0.422,3.547-0.672,5.344   c-9.156,11.906-68.375,80.422-216.719,80.422c-84.563,0-143.391-21.766-177.859-40.016c-29.766-15.773-46.984-31.711-52.797-37.594   c-0.391-5.492-0.672-11.641-0.703-18.047C30.912,112.125,35.053,92.648,42.725,83.672z M391.912,254.836   c-5.266,1.266-10.484,2.453-15.672,3.594c-2.516-3.797-3.391-7.898-2.703-12.422c0.297-1.984,0.859-3.789,1.453-5.313   c14.391-4.156,28.094-9.172,41.016-15.008c0.234,6.414,2.078,12.563,5.406,18.18C412.834,248.406,403.053,252.141,391.912,254.836z    M311.506,269.406c-1.922-3.445-2.578-7.148-1.953-11.18c0.297-1.953,0.844-3.734,1.422-5.234   c14.172-1.508,27.875-3.68,41.094-6.531c-0.359,5.68,0.531,11.195,2.563,16.367C339.928,265.578,325.537,267.773,311.506,269.406z    M123.131,248.891c-4.625-4.734-6.438-9.953-5.531-15.883c0.047-0.352,0.109-0.688,0.172-1.023   c10.656,3.82,21.641,7.195,32.938,10.102c3.656,0.938,7.359,1.82,11.094,2.664c-0.438,1.469-0.828,3.023-1.109,4.664   c-0.75,4.156-0.859,8.25-0.328,12.219C146.537,257.953,134.146,253.594,123.131,248.891z M184.928,267.102   c-2.984-4.047-4.094-8.445-3.344-13.328c0.266-1.781,0.75-3.422,1.266-4.836c13.578,2.336,27.531,4.047,41.781,5.133   c-1.078,6.219-0.719,12.281,1,17.992C211.037,271.102,197.49,269.391,184.928,267.102z M250.021,272.938   c-3.828-4.422-5.281-9.266-4.453-14.711c0.156-1.055,0.391-2.055,0.656-2.992c5.359,0.172,10.75,0.266,16.188,0.266   c8.828,0,17.531-0.25,26.094-0.719c-0.906,5.766-0.578,11.406,0.953,16.734c-12.484,0.953-24.656,1.438-36.484,1.438   C251.975,272.953,251.006,272.938,250.021,272.938z M49.959,198.398c6.813,4.523,14.625,9.258,23.453,13.984   c7.844,4.195,15.984,8.102,24.375,11.719c-0.422,1.438-0.797,2.945-1.078,4.547c-0.406,2.242-0.625,4.461-0.656,6.664   c-6.313-3.703-11.953-7.422-16.938-11.031C66.646,215.266,57.068,206.211,49.959,198.398z M325.459,449.703   c-20.359,27.188-53.109,40.969-97.328,40.969c-10.516,0-21.828-0.781-33.641-2.328c-33.828-4.406-57.219-15.656-71.531-34.406   c-26.625-34.875-18.75-92-11.125-147.25c1.75-12.734,3.469-25.219,4.766-37.32c7.234,3.039,14.688,5.805,22.359,8.289   c11.281,3.656,23.047,6.703,35.219,9.156c0.125,0.109,0.25,0.219,0.359,0.328l0.203-0.219c12.438,2.484,25.313,4.344,38.609,5.578   v48.75h-21.328l-21.328,21.328v85.313h106.641v-85.313l-21.328-21.328h-21.328v-47.344c6.016,0.234,12.125,0.375,18.297,0.375   c29.125,0,60.156-2.766,92.703-8.219C353.24,327.813,360.303,403.203,325.459,449.703z M234.678,383.906v-21.328h12.484   l8.844,8.828v55.156h-63.984v-55.156l8.828-8.828h12.5v21.328H234.678z M426.631,309.25v32v31.25l-10.672,7.094l-10.672-7.094   v-31.25v-32v-35.938c7.531-2.242,14.641-4.961,21.344-8.141V309.25z M439.209,232.023c-1.719-3.305-2.281-6.844-1.688-10.68   c0.516-3.445,1.828-6.375,2.766-8.141c1.547-0.898,3.078-1.813,4.594-2.734c8.703-5.32,16.219-10.656,22.625-15.719   C461.209,208.359,452.146,221.313,439.209,232.023z" fill="#fff"/>
</svg>